<svg width="426" height="92" viewBox="0 0 426 92" fill="none" xmlns="http://www.w3.org/2000/svg">
<path d="M165.396 72.4375H128.193L124.104 68.3333H115.365C114.953 67.7031 114.245 67.2865 113.443 67.2865C112.172 67.2865 111.146 68.3177 111.146 69.5886C111.146 70.8646 112.172 71.8958 113.443 71.8958C114.266 71.8958 114.984 71.4583 115.391 70.8021H123.089L127.172 74.9063H165.568C165.984 75.474 166.656 75.8438 167.411 75.8438C168.677 75.8438 169.708 74.8125 169.708 73.5417C169.708 72.2656 168.677 71.2344 167.411 71.2344C166.542 71.2344 165.786 71.724 165.396 72.4375Z" fill="#3871C1"/>
<path d="M156.031 15.0521H136.5L131.594 19.974H126.208L121.052 14.7969H114.911C114.505 14.1302 113.781 13.6823 112.948 13.6823C111.682 13.6823 110.651 14.7135 110.651 15.9896C110.651 17.2604 111.682 18.2917 112.948 18.2917C113.745 18.2917 114.448 17.8854 114.859 17.2656H120.031L125.187 22.4427H132.609L137.516 17.5208H155.99C156.396 18.1771 157.12 18.6198 157.948 18.6198C159.214 18.6198 160.24 17.5885 160.24 16.3177C160.24 15.0469 159.214 14.0156 157.948 14.0156C157.146 14.0156 156.443 14.4271 156.031 15.0521Z" fill="#3871C1"/>
<mask id="mask0_6_181" style="mask-type:luminance" maskUnits="userSpaceOnUse" x="99" y="2" width="91" height="90">
<path d="M99.6667 2H189.641V91.1771H99.6667V2Z" fill="white"/>
</mask>
<g mask="url(#mask0_6_181)">
<path d="M189.484 55.75C189.365 54.6823 188.49 53.8229 187.427 53.724C186.479 53.6302 185.635 54.125 185.208 54.8802H146.354L142.208 50.7188L146.911 45.9948H163.865C164.313 46.7188 165.141 47.1719 166.068 47.0729C167.12 46.9583 167.974 46.1042 168.094 45.0469C168.245 43.6563 167.167 42.4792 165.813 42.4792C165.01 42.4792 164.297 42.8958 163.891 43.526H145.891L139.958 49.4844H111.844C109.365 49.4844 107.359 47.4688 107.359 44.9792C107.359 42.4896 109.365 40.474 111.844 40.474H135.568L141.193 34.8281H183.37C183.792 35.4219 184.49 35.8073 185.281 35.7917C186.484 35.7708 187.495 34.7656 187.531 33.5573C187.568 32.2552 186.526 31.1875 185.24 31.1875C184.38 31.1875 183.635 31.6615 183.24 32.3594H140.172L134.547 38.0052H111.844C109.365 38.0052 107.359 35.9896 107.359 33.5C107.359 31.0156 109.365 28.9948 111.844 28.9948H146.224L151.542 23.6563H164.974C165.417 24.3802 166.245 24.8333 167.172 24.7344C168.224 24.6198 169.083 23.7656 169.198 22.7083C169.354 21.3177 168.271 20.1406 166.922 20.1406C166.115 20.1406 165.406 20.5573 164.995 21.1927H150.521L145.203 26.526H117.563C111.927 26.526 107.359 21.9427 107.359 16.2865C107.359 10.6302 111.927 6.04167 117.563 6.04167H165.333C165.781 6.75 166.609 7.19792 167.526 7.09896C168.578 6.97917 169.432 6.125 169.547 5.07292C169.703 3.68229 168.62 2.50521 167.266 2.50521C166.453 2.50521 165.74 2.93229 165.333 3.57292H107.042L102.823 7.66667C102.062 8.40104 101.089 8.76563 100.109 8.76563V91.1406C101.49 91.1406 102.875 90.6823 104.021 89.7656C106.755 87.5781 110.156 86.3854 113.656 86.3854H165.474C165.927 87.0938 166.75 87.5417 167.672 87.4375C168.724 87.3229 169.578 86.4688 169.693 85.4115C169.844 84.0208 168.766 82.8438 167.411 82.8438C166.594 82.8438 165.885 83.2708 165.474 83.9167H117.563C111.927 83.9167 107.359 79.3281 107.359 73.6719C107.359 68.0156 111.927 63.4271 117.563 63.4271H138.323L143.802 68.9323H157.698L163.224 63.3802H175.755C176.214 64.0833 177.031 64.5156 177.948 64.4115C178.995 64.2917 179.839 63.4375 179.958 62.3854C180.109 61 179.031 59.8229 177.677 59.8229C176.854 59.8229 176.13 60.2552 175.724 60.9167H162.203L156.677 66.4635H144.818L139.339 60.9583H111.844C109.365 60.9583 107.359 58.9427 107.359 56.4583C107.359 53.9688 109.365 51.9531 111.844 51.9531H139.958L145.339 57.349H185.339C185.755 57.9375 186.432 58.3177 187.203 58.3177C188.557 58.3177 189.635 57.1406 189.484 55.75Z" fill="#3871C1"/>
</g>
<path d="M29.151 42.3125H15.6302V28.7396H29.151V42.3125Z" fill="#00ADEF"/>
<mask id="mask1_6_181" style="mask-type:luminance" maskUnits="userSpaceOnUse" x="0" y="14" width="13" height="14">
<path d="M0.9375 14H13V27.3333H0.9375V14Z" fill="white"/>
</mask>
<g mask="url(#mask1_6_181)">
<path d="M12.9427 26.4531H0.9375V14.401H12.9427V26.4531Z" fill="#00ADEF"/>
</g>
<path d="M29.151 11.9948H20.1771V2.98438H29.151V11.9948Z" fill="#00ADEF"/>
<path d="M29.151 62.2656H20.1771V53.2552H29.151V62.2656Z" fill="#00ADEF"/>
<mask id="mask2_6_181" style="mask-type:luminance" maskUnits="userSpaceOnUse" x="35" y="0" width="66" height="92">
<path d="M35.6667 0.666672H101V91.1771H35.6667V0.666672Z" fill="white"/>
</mask>
<g mask="url(#mask2_6_181)">
<path d="M81.8281 62.2656H72.8542V53.2552H81.8281V62.2656ZM72.6094 46.8177H59.0833V33.2448H72.6094V46.8177ZM56.5885 29.2292H47.6094V20.224H56.5885V29.2292ZM52.9792 55.8281H44.0052V46.8177H52.9792V55.8281ZM63.8802 7.48959H72.8542V16.5H63.8802V7.48959ZM97.3958 7.66668C97.3958 7.66668 68.3698 -5.62499 36.625 8.32813V31.0208H44.0052V40.0313H36.625V62.2656H46.2813V75.8438H36.625V91.1406C59.4531 79.599 93.4583 87.5781 96.1979 89.7656C97.3438 90.6823 98.724 91.1406 100.109 91.1406V8.76563C99.1302 8.76563 98.151 8.40105 97.3958 7.66668Z" fill="#00ADEF"/>
</g>
<path d="M209.784 27.7346H215.513V54.0263H209.784V27.7346Z" fill="#38B6FF"/>
<path d="M234.23 33.1096H226.584V27.7346H247.605V33.1096H239.959V54.0263H234.23V33.1096Z" fill="#38B6FF"/>
<path d="M274.622 27.7346H280.351V39.5471L288.517 27.7346H295.101L286.267 40.2555L295.622 54.0263H288.747L280.351 41.5888V54.0263H274.622V27.7346Z" fill="#38B6FF"/>
<path d="M305.686 27.7346H311.415V38.0263H321.665V27.7346H327.394V54.0263H321.665V43.4013H311.415V54.0263H305.686V27.7346Z" fill="#38B6FF"/>
<path d="M340.594 27.7346H346.323V43.7555L360.677 27.2763H363.657V54.0263H357.948V38.0263L343.573 54.5055H340.594V27.7346Z" fill="#38B6FF"/>
<path d="M376.875 27.7346H391.791V33.1096H382.604V54.0263H376.875V27.7346Z" fill="#38B6FF"/>
<path d="M411.241 27.2763H414.887L425.241 54.0263H419.2L417.596 49.5888H408.533L406.971 54.0263H400.887L411.241 27.2763ZM415.825 44.6513L413.075 36.9221L410.304 44.6513H415.825Z" fill="#38B6FF"/>
<path d="M221.928 78.6377V68.9294H227.699V69.9919H223.158V73.0336H224.595C225.564 73.0336 226.314 73.1586 226.845 73.4086C227.387 73.6482 227.762 73.9711 227.97 74.3877C228.178 74.794 228.283 75.2627 228.283 75.8044C228.283 76.695 228.012 77.3877 227.47 77.8877C226.939 78.3877 226.043 78.6377 224.783 78.6377H221.928ZM223.158 77.5961H224.658C225.533 77.5961 226.142 77.4502 226.491 77.1586C226.85 76.8565 227.033 76.4034 227.033 75.8044C227.033 75.169 226.829 74.7211 226.428 74.4711C226.038 74.2211 225.376 74.0961 224.449 74.0961H223.158V77.5961Z" fill="#5271FF"/>
<path d="M247.287 78.6377L246.12 75.6377H242.266L241.099 78.6377H239.87L243.662 68.8877H244.766L248.558 78.6377H247.287ZM245.745 74.5336L244.662 71.5961C244.631 71.5284 244.584 71.4034 244.516 71.2211C244.459 71.0284 244.396 70.8252 244.329 70.6169C244.271 70.4086 244.23 70.2575 244.204 70.1586C244.12 70.4398 244.037 70.7107 243.954 70.9711C243.881 71.2367 243.818 71.445 243.766 71.5961L242.683 74.5336H245.745Z" fill="#5271FF"/>
<path d="M266.513 71.2002C266.513 71.8565 266.305 72.3773 265.888 72.7627C265.472 73.1534 264.914 73.4034 264.222 73.5127V73.5544C265.024 73.669 265.644 73.9242 266.076 74.3252C266.503 74.7315 266.722 75.2523 266.722 75.8877C266.722 76.7367 266.394 77.4294 265.743 77.9711C265.086 78.5127 264.107 78.7836 262.805 78.7836C262.274 78.7836 261.769 78.7419 261.284 78.6586C260.81 78.5752 260.373 78.4398 259.972 78.2419V77.1377C260.388 77.3461 260.847 77.5075 261.347 77.6169C261.857 77.7159 262.336 77.7627 262.784 77.7627C263.659 77.7627 264.316 77.6065 264.763 77.2836C265.206 76.9502 265.43 76.4867 265.43 75.8877C265.43 75.2784 265.164 74.8357 264.638 74.5544C264.123 74.2627 263.394 74.1169 262.451 74.1169H261.055V73.0961H262.368C263.336 73.0961 264.06 72.9398 264.534 72.6169C265.003 72.2992 265.243 71.8669 265.243 71.3252C265.243 70.8252 265.06 70.4502 264.701 70.2002C264.336 69.9398 263.868 69.8044 263.284 69.8044C262.67 69.8044 262.164 69.8825 261.763 70.0336C261.357 70.1898 260.972 70.3825 260.597 70.6169L260.013 69.8044C260.388 69.5127 260.852 69.2732 261.409 69.0752C261.977 68.8825 262.607 68.7836 263.305 68.7836C264.347 68.7836 265.138 69.0127 265.68 69.4711C266.232 69.9294 266.513 70.5075 266.513 71.2002Z" fill="#5271FF"/>
<path d="M279.671 68.9294H280.817V74.2627C280.817 74.57 280.807 74.9086 280.796 75.2836C280.796 75.6482 280.781 75.9867 280.755 76.3044C280.739 76.6117 280.723 76.8357 280.713 76.9711H280.775L286.13 68.9294H287.484V78.6377H286.338V73.3669C286.338 73.0336 286.343 72.6794 286.359 72.3044C286.369 71.919 286.385 71.5648 286.4 71.2419C286.427 70.9242 286.442 70.695 286.442 70.5544H286.4L281.025 78.6377H279.671V68.9294Z" fill="#5271FF"/>
<path d="M322.021 68.9294V77.5544H323.271V81.2002H322.105V78.6377H315.417V81.2002H314.25V77.5544H315C315.318 76.9867 315.625 76.3565 315.917 75.6586C316.219 74.9659 316.485 74.2367 316.709 73.4711C316.927 72.695 317.11 71.9242 317.25 71.1586C317.401 70.3825 317.5 69.6377 317.542 68.9294H322.021ZM320.813 70.0336H318.625C318.584 70.5648 318.49 71.1586 318.355 71.8252C318.214 72.4815 318.032 73.1534 317.813 73.8461C317.605 74.544 317.365 75.2107 317.105 75.8461C316.855 76.4867 316.584 77.0544 316.292 77.5544H320.813V70.0336Z" fill="#5271FF"/>
<path d="M341.872 78.6377L340.705 75.6377H336.851L335.684 78.6377H334.455L338.247 68.8877H339.351L343.142 78.6377H341.872ZM340.33 74.5336L339.247 71.5961C339.215 71.5284 339.169 71.4034 339.101 71.2211C339.044 71.0284 338.981 70.8252 338.913 70.6169C338.856 70.4086 338.814 70.2575 338.788 70.1586C338.705 70.4398 338.622 70.7107 338.538 70.9711C338.465 71.2367 338.403 71.445 338.351 71.5961L337.267 74.5336H340.33Z" fill="#5271FF"/>
<path d="M362.786 78.6377H361.557V74.1169H356.577V78.6377H355.348V68.9294H356.577V73.0336H361.557V68.9294H362.786V78.6377Z" fill="#5271FF"/>
<path d="M376.337 68.9294H377.483V74.2627C377.483 74.57 377.473 74.9086 377.462 75.2836C377.462 75.6482 377.447 75.9867 377.42 76.3044C377.405 76.6117 377.389 76.8357 377.379 76.9711H377.441L382.795 68.9294H384.15V78.6377H383.004V73.3669C383.004 73.0336 383.009 72.6794 383.025 72.3044C383.035 71.919 383.051 71.5648 383.066 71.2419C383.092 70.9242 383.108 70.695 383.108 70.5544H383.066L377.691 78.6377H376.337V68.9294Z" fill="#5271FF"/>
<path d="M404.256 78.6377H402.86L400.298 74.4294L397.693 78.6377H396.402L399.61 73.5752L396.589 68.9294H397.964L400.339 72.7419L402.735 68.9294H404.027L401.027 73.5544L404.256 78.6377Z" fill="#5271FF"/>
</svg>
