<svg width="189" height="91" viewBox="0 0 189 91" fill="none" xmlns="http://www.w3.org/2000/svg">
<mask id="mask0_10_20" style="mask-type:luminance" maskUnits="userSpaceOnUse" x="98" y="1" width="91" height="90">
<path d="M98.7292 1.33333H188.703V90.5104H98.7292V1.33333Z" fill="white"/>
</mask>
<g mask="url(#mask0_10_20)">
<path d="M188.547 55.0833C188.427 54.0156 187.552 53.1562 186.49 53.0573C185.542 52.9635 184.698 53.4583 184.271 54.2135H145.417L141.271 50.0521L145.974 45.3281H162.927C163.375 46.0521 164.203 46.5052 165.13 46.4062C166.182 46.2917 167.036 45.4375 167.156 44.3802C167.307 42.9896 166.229 41.8125 164.875 41.8125C164.073 41.8125 163.359 42.2292 162.953 42.8594H144.953L139.021 48.8177H110.906C108.427 48.8177 106.422 46.8021 106.422 44.3125C106.422 41.8229 108.427 39.8073 110.906 39.8073H134.63L140.255 34.1615H182.432C182.854 34.7552 183.552 35.1406 184.344 35.125C185.547 35.1042 186.557 34.099 186.594 32.8906C186.63 31.5885 185.589 30.5208 184.302 30.5208C183.443 30.5208 182.698 30.9948 182.302 31.6927H139.234L133.609 37.3385H110.906C108.427 37.3385 106.422 35.3229 106.422 32.8333C106.422 30.349 108.427 28.3281 110.906 28.3281H145.286L150.604 22.9896H164.036C164.479 23.7135 165.307 24.1667 166.234 24.0677C167.286 23.9531 168.146 23.099 168.26 22.0417C168.417 20.651 167.333 19.474 165.984 19.474C165.177 19.474 164.469 19.8906 164.057 20.526H149.583L144.266 25.8594H116.625C110.99 25.8594 106.422 21.276 106.422 15.6198C106.422 9.96354 110.99 5.375 116.625 5.375H164.396C164.844 6.08333 165.672 6.53125 166.589 6.43229C167.641 6.3125 168.495 5.45833 168.609 4.40625C168.766 3.01562 167.682 1.83854 166.328 1.83854C165.516 1.83854 164.802 2.26562 164.396 2.90625H106.104L101.885 7C101.125 7.73437 100.151 8.09896 99.1719 8.09896V90.474C100.552 90.474 101.938 90.0156 103.083 89.099C105.818 86.9115 109.219 85.7187 112.719 85.7187H164.536C164.99 86.4271 165.813 86.875 166.734 86.7708C167.786 86.6563 168.641 85.8021 168.755 84.7448C168.906 83.3542 167.828 82.1771 166.474 82.1771C165.656 82.1771 164.948 82.6042 164.536 83.25H116.625C110.99 83.25 106.422 78.6615 106.422 73.0052C106.422 67.349 110.99 62.7604 116.625 62.7604H137.385L142.865 68.2656H156.76L162.286 62.7135H174.818C175.276 63.4167 176.094 63.849 177.01 63.7448C178.057 63.625 178.901 62.7708 179.021 61.7187C179.172 60.3333 178.094 59.1562 176.74 59.1562C175.917 59.1562 175.193 59.5885 174.786 60.25H161.266L155.74 65.7969H143.88L138.401 60.2917H110.906C108.427 60.2917 106.422 58.276 106.422 55.7917C106.422 53.3021 108.427 51.2865 110.906 51.2865H139.021L144.401 56.6823H184.401C184.818 57.2708 185.495 57.651 186.266 57.651C187.62 57.651 188.698 56.474 188.547 55.0833Z" fill="#3871C1"/>
</g>
<path d="M28.2135 41.6458H14.6927V28.0729H28.2135V41.6458Z" fill="#00ADEF"/>
<mask id="mask1_10_20" style="mask-type:luminance" maskUnits="userSpaceOnUse" x="0" y="13" width="13" height="14">
<path d="M0 13.3333H12.0625V26.6667H0V13.3333Z" fill="white"/>
</mask>
<g mask="url(#mask1_10_20)">
<path d="M12.0052 25.7865H0V13.7344H12.0052V25.7865Z" fill="#00ADEF"/>
</g>
<path d="M28.2135 11.3281H19.2396V2.3177H28.2135V11.3281Z" fill="#00ADEF"/>
<path d="M28.2135 61.599H19.2396V52.5885H28.2135V61.599Z" fill="#00ADEF"/>
<mask id="mask2_10_20" style="mask-type:luminance" maskUnits="userSpaceOnUse" x="34" y="0" width="67" height="91">
<path d="M34.7292 0H100.062V90.5104H34.7292V0Z" fill="white"/>
</mask>
<g mask="url(#mask2_10_20)">
<path d="M80.8906 61.599H71.9167V52.5885H80.8906V61.599ZM71.6719 46.151H58.1458V32.5781H71.6719V46.151ZM55.651 28.5625H46.6719V19.5573H55.651V28.5625ZM52.0417 55.1615H43.0677V46.151H52.0417V55.1615ZM62.9427 6.82292H71.9167V15.8333H62.9427V6.82292ZM96.4583 7C96.4583 7 67.4323 -6.29166 35.6875 7.66146V30.3542H43.0677V39.3646H35.6875V61.599H45.3438V75.1771H35.6875V90.474C58.5156 78.9323 92.5208 86.9115 95.2604 89.099C96.4063 90.0156 97.7865 90.474 99.1719 90.474V8.09896C98.1927 8.09896 97.2135 7.73438 96.4583 7Z" fill="#00ADEF"/>
</g>
</svg>
